<?xml version="1.0" encoding="UTF-8"?><svg id="b" xmlns="http://www.w3.org/2000/svg" xmlns:xlink="http://www.w3.org/1999/xlink" viewBox="0 0 600 600"><defs><clipPath id="d"><rect width="600" height="600" fill="none" stroke-width="0"/></clipPath><clipPath id="e"><rect width="600" height="600" fill="none" stroke-width="0"/></clipPath></defs><g id="c"><g clip-path="url(#d)"><g clip-path="url(#e)"><path d="m300,572c-72.7,0-141-28.3-192.3-79.7-51.4-51.4-79.7-119.7-79.7-192.3s28.3-141,79.7-192.3c51.4-51.4,119.7-79.7,192.3-79.7s141,28.3,192.3,79.7c51.4,51.4,79.7,119.7,79.7,192.3s-28.3,141-79.7,192.3c-51.4,51.4-119.7,79.7-192.3,79.7" fill="#efae00" stroke-width="0"/><path d="m300,36c145.8,0,264,118.2,264,264s-118.2,264-264,264S36,445.8,36,300,154.2,36,300,36m0-16c-37.8,0-74.5,7.4-109,22-33.3,14.1-63.3,34.3-89,60-25.7,25.7-45.9,55.7-60,89-14.6,34.5-22,71.2-22,109s7.4,74.5,22,109c14.1,33.3,34.3,63.3,60,89,25.7,25.7,55.7,45.9,89,60,34.5,14.6,71.2,22,109,22s74.5-7.4,109-22c33.3-14.1,63.3-34.3,89-60,25.7-25.7,45.9-55.7,60-89,14.6-34.5,22-71.2,22-109s-7.4-74.5-22-109c-14.1-33.3-34.3-63.3-60-89-25.7-25.7-55.7-45.9-89-60-34.5-14.6-71.2-22-109-22" fill="#fff" stroke-width="0"/><path d="m519,294.6l-93.2-46.8,32.8-98.9c.7-2.2.2-4.5-1.5-6.1-1.6-1.6-4-2.2-6.1-1.5l-98.9,32.8-46.8-93.2c-1-2-3.1-3.3-5.4-3.3s-4.3,1.3-5.4,3.3l-46.8,93.2-98.9-32.8c-2.2-.7-4.5-.2-6.1,1.5-1.6,1.6-2.2,4-1.5,6.1l32.8,98.9-93.2,46.8c-2,1-3.3,3.1-3.3,5.4s1.3,4.3,3.3,5.4l93.2,46.8-32.8,98.9c-.7,2.2-.2,4.5,1.5,6.1,1.6,1.6,4,2.2,6.1,1.5l98.9-32.8,46.8,93.2c1,2,3.1,3.3,5.4,3.3s4.3-1.3,5.4-3.3l46.8-93.2,98.9,32.8c.6.2,1.3.3,1.9.3,1.6,0,3.1-.6,4.2-1.8,1.6-1.6,2.2-4,1.5-6.1l-32.8-98.9,93.2-46.8c2-1,3.3-3.1,3.3-5.4s-1.3-4.3-3.3-5.4m-89.8-123.8l-17.9,69.7-25.7-12.9,10-23.3-23.3,10-12.9-25.6,69.8-17.9Zm-101.7,62.7l-13.3-33.2,30.3-7.8,15.9,26.9-32.9,14.1Zm-55.1,0l-32.9-14.1,15.9-26.9,30.3,7.8-13.3,33.2Zm-38.9,38.9l-33.2,13.3-7.8-30.3,26.9-15.9,14.1,32.9Zm0,55.1l-14.1,32.9-26.9-15.9,7.8-30.3,33.2,13.3Zm38.9,38.9l13.3,33.2-30.3,7.8-15.9-26.9,32.9-14.1Zm55.1,0l32.9,14.1-15.9,26.9-30.3-7.8,13.3-33.2Zm38.9-38.9l33.2-13.3,7.8,30.3-26.9,15.9-14.1-32.9Zm0-55.1l14.1-32.9,26.9,15.9-7.8,30.3-33.2-13.3Zm-66.4-155.1l36.6,61.9-27.3,9-9.4-23.5-9.4,23.5-27.2-9,36.7-62Zm-129.1,53.5l69.7,17.9-12.9,25.7-23.3-10,10,23.3-25.6,12.9-17.8-69.7Zm-53.5,129.1l61.9-36.6,9,27.2-23.5,9.4,23.5,9.4-9,27.2-61.9-36.6Zm53.5,129.1l17.8-69.7,25.6,12.9-10,23.3,23.3-10,12.9,25.7-69.7,17.9Zm129.1,53.5l-36.7-62,27.2-9,9.4,23.5,9.4-23.5,27.3,9-36.6,61.9Zm129.1-53.5l-69.8-17.9,12.9-25.7,23.3,10-10-23.3,25.7-12.9,17.9,69.7Zm-8.5-92.5l-9-27.3,23.5-9.4-23.5-9.4,9-27.3,62,36.7-62,36.7Z" fill="#fff" stroke-width="0"/></g></g></g></svg>