<?xml version="1.0" encoding="UTF-8"?><svg id="b" xmlns="http://www.w3.org/2000/svg" xmlns:xlink="http://www.w3.org/1999/xlink" viewBox="0 0 600 600"><defs><clipPath id="d"><rect width="600" height="600" fill="none" stroke-width="0"/></clipPath><clipPath id="e"><rect width="600" height="600" fill="none" stroke-width="0"/></clipPath></defs><g id="c"><g clip-path="url(#d)"><g clip-path="url(#e)"><path d="m300,572c-72.7,0-141-28.3-192.3-79.7-51.4-51.4-79.7-119.7-79.7-192.3s28.3-141,79.7-192.3c51.4-51.4,119.7-79.7,192.3-79.7s141,28.3,192.3,79.7c51.4,51.4,79.7,119.7,79.7,192.3s-28.3,141-79.7,192.3-119.7,79.7-192.3,79.7" fill="#a5b6bd" stroke-width="0"/><path d="m300,36c145.8,0,264,118.2,264,264s-118.2,264-264,264S36,445.8,36,300,154.2,36,300,36m0-16c-37.8,0-74.5,7.4-109,22-33.3,14.1-63.3,34.3-89,60-25.7,25.7-45.9,55.7-60,89-14.6,34.5-22,71.2-22,109s7.4,74.5,22,109c14.1,33.3,34.3,63.3,60,89,25.7,25.7,55.7,45.9,89,60,34.5,14.6,71.2,22,109,22s74.5-7.4,109-22c33.3-14.1,63.3-34.3,89-60,25.7-25.7,45.9-55.7,60-89,14.6-34.5,22-71.2,22-109s-7.4-74.5-22-109c-14.1-33.3-34.3-63.3-60-89-25.7-25.7-55.7-45.9-89-60-34.5-14.6-71.2-22-109-22" fill="#fff" stroke-width="0"/><path d="m78.6,327.2c-1.4-.3-1.3-2.3,0-2.5,12.5-1.7,42.6-2.8,81.7,15.7,52,24.5,136,79.2,185.7,76.3,42.1-2.5,62.5-18.3,60.3-37.8-1.8-15.2-18.8-25.2-31.8-20.2s-18.8,16.8-17.8,27.8c-11-8.5-7-25-3.5-29.5s22.7-30.7,55.5-8c27.5,19,15.9,56,0,70-10.5,9.2-42,32.5-101.5,17.5-59.5-15-123.6-69.3-157.5-85.5-31.2-14.9-44.6-18.1-71.2-23.7" fill="#fff" stroke-width="0"/><path d="m168.1,320.6c-1-.5-.4-2,.7-1.7,22.2,6.8,78.8,19.6,119.6,9,59.7-15.5,70.5-51,130-79.8,38-18.4,87.5-5.2,101,31.8,13.5,37-21.7,62.5-49.5,61-23-1.2-38.5-14.4-41.5-25-3.3-11.8,1.3-27.1,15-31.5-4,18,5.8,37.7,26,36.5,20-1.2,37.7-26.2,19-45-18.7-18.8-42-15.2-56-6.5-14.9,9.2-50,44-80,58.5-28.8,13.9-71,29.1-114.6,17.5-37.2-9.9-48.6-13.2-69.8-24.8" fill="#fff" stroke-width="0"/><path d="m111.7,286.8c-1.3-.5-.9-2.4.5-2.3,17.1.7,65,0,90.2-28.1,31-34.5,23.9-58,51.5-83,19.2-17.4,63.3-23,94.2,3.5,34.5,29.5,16.2,87.1-18.1,104.8-29,15-65.4,10.2-73.7-13.3-9.2-26.2,9.8-49.2,29-49,20.3.3,17.5,20.5,17.5,20.5,0,0-6-10.5-14.2-9.2-10.5,1.6-19.7,14.7-14.2,27.8,6.8,16.2,35.8,23.4,56.7-1.3,21.5-25.5,16.8-60.2-18.7-72.7-32.8-11.6-52,12.6-69.5,45-13.8,25.5-29.2,58-76.5,60.7-34.6,2-48-.7-54.7-3.3" fill="#fff" stroke-width="0"/></g></g></g></svg>