<?xml version="1.0" encoding="UTF-8"?><svg id="b" xmlns="http://www.w3.org/2000/svg" xmlns:xlink="http://www.w3.org/1999/xlink" viewBox="0 0 600 600"><defs><clipPath id="d"><rect width="600" height="600" fill="none" stroke-width="0"/></clipPath><clipPath id="e"><rect width="600" height="600" fill="none" stroke-width="0"/></clipPath></defs><g id="c"><g clip-path="url(#d)"><g clip-path="url(#e)"><path d="m300,572c-72.7,0-141-28.3-192.3-79.7-51.4-51.4-79.7-119.7-79.7-192.3s28.3-141,79.7-192.3c51.4-51.4,119.7-79.7,192.3-79.7s141,28.3,192.3,79.7c51.4,51.4,79.7,119.7,79.7,192.3s-28.3,141-79.7,192.3-119.7,79.7-192.3,79.7" fill="#282f37" stroke-width="0"/><path d="m300,36c145.8,0,264,118.2,264,264s-118.2,264-264,264S36,445.8,36,300,154.2,36,300,36m0-16c-37.8,0-74.5,7.4-109,22-33.3,14.1-63.3,34.3-89,60-25.7,25.7-45.9,55.7-60,89-14.6,34.5-22,71.2-22,109s7.4,74.5,22,109c14.1,33.3,34.3,63.3,60,89,25.7,25.7,55.7,45.9,89,60,34.5,14.6,71.2,22,109,22s74.5-7.4,109-22c33.3-14.1,63.3-34.3,89-60,25.7-25.7,45.9-55.7,60-89,14.6-34.5,22-71.2,22-109s-7.4-74.5-22-109c-14.1-33.3-34.3-63.3-60-89-25.7-25.7-55.7-45.9-89-60-34.5-14.6-71.2-22-109-22" fill="#fff" stroke-width="0"/><path d="m345.8,142.2c-15.9,0-31.3,2.4-45.8,6.8-14.5-4.4-29.9-6.8-45.8-6.8-87,0-157.8,70.8-157.8,157.8s70.8,157.8,157.8,157.8,31.3-2.4,45.8-6.8c14.5,4.4,29.9,6.8,45.8,6.8,87,0,157.8-70.8,157.8-157.8s-70.8-157.8-157.8-157.8m-45.8,296.2c-6.4,2.1-13.1,3.8-19.8,5.1-8.4,1.5-17.1,2.3-26,2.3-80.4,0-145.8-65.4-145.8-145.8s65.4-145.8,145.8-145.8,17.5.8,26,2.3c6.8,1.2,13.4,2.9,19.8,5.1,6,2,11.9,4.4,17.5,7.1,48.8,23.6,82.5,73.6,82.5,131.3s-33.7,107.7-82.5,131.3c-5.6,2.7-11.5,5.1-17.5,7.1m45.8,7.4c-8.9,0-17.6-.8-26-2.3,6.1-2.8,11.9-5.9,17.5-9.4,1.8-1.1,3.5-2.3,5.3-3.5,73.1-1.2,132-59.2,132-130.6s-58.9-129.4-132-130.6c-1.7-1.2-3.5-2.3-5.3-3.5-5.6-3.5-11.5-6.7-17.5-9.4,8.4-1.5,17.1-2.3,26-2.3,80.4,0,145.8,65.4,145.8,145.8s-65.4,145.8-145.8,145.8" fill="#fff" stroke-width="0"/></g></g></g></svg>