<?xml version="1.0" encoding="UTF-8"?><svg id="b" xmlns="http://www.w3.org/2000/svg" xmlns:xlink="http://www.w3.org/1999/xlink" viewBox="0 0 600 600"><defs><clipPath id="d"><rect width="600" height="600" fill="none" stroke-width="0"/></clipPath><clipPath id="e"><rect width="600" height="600" fill="none" stroke-width="0"/></clipPath></defs><g id="c"><g clip-path="url(#d)"><g clip-path="url(#e)"><path d="m300,572c-72.7,0-141-28.3-192.3-79.7-51.4-51.4-79.7-119.7-79.7-192.3s28.3-141,79.7-192.3c51.4-51.4,119.7-79.7,192.3-79.7s141,28.3,192.3,79.7c51.4,51.4,79.7,119.7,79.7,192.3s-28.3,141-79.7,192.3-119.7,79.7-192.3,79.7" fill="#90a526" stroke-width="0"/><path d="m300,36c145.8,0,264,118.2,264,264s-118.2,264-264,264S36,445.8,36,300,154.2,36,300,36m0-16c-37.8,0-74.5,7.4-109,22-33.3,14.1-63.3,34.3-89,60-25.7,25.7-45.9,55.7-60,89-14.6,34.5-22,71.2-22,109s7.4,74.5,22,109c14.1,33.3,34.3,63.3,60,89,25.7,25.7,55.7,45.9,89,60,34.5,14.6,71.2,22,109,22s74.5-7.4,109-22c33.3-14.1,63.3-34.3,89-60,25.7-25.7,45.9-55.7,60-89,14.6-34.5,22-71.2,22-109s-7.4-74.5-22-109c-14.1-33.3-34.3-63.3-60-89-25.7-25.7-55.7-45.9-89-60-34.5-14.6-71.2-22-109-22" fill="#fff" stroke-width="0"/><path d="m191.8,394.9c-.4,4-4.9,6.2-8.3,4-24.3-15.8-85.6-80.7-11.6-162.8,73.5-81.6,169.6-37.9,265.7-95.9,2.9-1.8,6.7-.2,7.4,3.2,13.1,59.2,21,188-39.1,247.2-73.5,72.5-133.5,40.5-166,29-1.5,18,4.5,41.9,9.5,58.4s-27,21.1-31,18.1-18.6-83.8,18.5-133c47.5-63,163-118,166.5-162.5-22.5,20-51.8,46.5-129,89.5-68.4,38.1-80.6,85.6-82.7,104.8" fill="#fff" stroke-width="0"/></g></g></g></svg>