<?xml version="1.0" encoding="UTF-8"?><svg id="b" xmlns="http://www.w3.org/2000/svg" xmlns:xlink="http://www.w3.org/1999/xlink" viewBox="0 0 600 600"><defs><clipPath id="d"><rect width="600" height="600" fill="none" stroke-width="0"/></clipPath><clipPath id="e"><rect width="600" height="600" fill="none" stroke-width="0"/></clipPath></defs><g id="c"><g clip-path="url(#d)"><g clip-path="url(#e)"><path d="m300,572c-72.7,0-141-28.3-192.3-79.7-51.4-51.4-79.7-119.7-79.7-192.3s28.3-141,79.7-192.3c51.4-51.4,119.7-79.7,192.3-79.7s141,28.3,192.3,79.7c51.4,51.4,79.7,119.7,79.7,192.3s-28.3,141-79.7,192.3-119.7,79.7-192.3,79.7" fill="#dd4813" stroke-width="0"/><path d="m300,36c145.8,0,264,118.2,264,264s-118.2,264-264,264S36,445.8,36,300,154.2,36,300,36m0-16c-37.8,0-74.5,7.4-109,22-33.3,14.1-63.3,34.3-89,60-25.7,25.7-45.9,55.7-60,89-14.6,34.5-22,71.2-22,109s7.4,74.5,22,109c14.1,33.3,34.3,63.3,60,89,25.7,25.7,55.7,45.9,89,60,34.5,14.6,71.2,22,109,22s74.5-7.4,109-22c33.3-14.1,63.3-34.3,89-60,25.7-25.7,45.9-55.7,60-89,14.6-34.5,22-71.2,22-109s-7.4-74.5-22-109c-14.1-33.3-34.3-63.3-60-89-25.7-25.7-55.7-45.9-89-60-34.5-14.6-71.2-22-109-22" fill="#fff" stroke-width="0"/><path d="m386.1,230.1c-42.5-34.5-58.5-99.5-47-143.5-25.5,2.5-66.3,25.3-83.5,89.5-22,82,44,140.5,0,170.5-51.4,35.1-86.5-26-82-82.5-30,23.5-48.4,119.6-9.5,178,28,42,63.8,66.1,109.5,71.4-14.7-10.4-15.7-29.9-10.5-44.9,7.5-21.5,32.2-31.1,55.5-49,26-20,37-40,38.5-49.5,13,19.5,28.6,48.3,15.5,91-6,19.6-17,38.3-34.3,49.5,55-14.2,119.7-61.9,119.8-146,.2-75-37.9-106.8-72-134.5" fill="#fff" stroke-width="0"/></g></g></g></svg>