<?xml version="1.0" encoding="UTF-8"?><svg id="b" xmlns="http://www.w3.org/2000/svg" xmlns:xlink="http://www.w3.org/1999/xlink" viewBox="0 0 600 600"><defs><clipPath id="d"><rect width="600" height="600" fill="none" stroke-width="0"/></clipPath><clipPath id="e"><rect width="600" height="600" fill="none" stroke-width="0"/></clipPath><clipPath id="f"><path d="m286.1,16.4L16.4,286.1c-7.7,7.7-7.7,20.1,0,27.8l269.7,269.7c7.7,7.7,20.1,7.7,27.8,0l269.7-269.7c7.7-7.7,7.7-20.1,0-27.8L313.9,16.4c-3.8-3.8-8.9-5.8-13.9-5.8s-10.1,1.9-13.9,5.8" fill="none" stroke-width="0"/></clipPath><clipPath id="g"><rect width="600" height="600" fill="none" stroke-width="0"/></clipPath></defs><g id="c"><g clip-path="url(#d)"><g clip-path="url(#e)"><path d="m300,584.3c-3.9,0-7.6-1.5-10.4-4.3L20,310.4c-2.8-2.8-4.3-6.5-4.3-10.4s1.5-7.6,4.3-10.4L289.6,20c2.8-2.8,6.5-4.3,10.4-4.3s7.6,1.5,10.4,4.3l269.7,269.7c2.8,2.8,4.3,6.5,4.3,10.4s-1.5,7.6-4.3,10.4l-269.7,269.7c-2.8,2.8-6.5,4.3-10.4,4.3" fill="#6e7b7f" stroke-width="0"/><path d="m300,20.7c2.6,0,5,1,6.8,2.8l269.7,269.7c3.8,3.8,3.8,9.9,0,13.7l-269.7,269.7c-1.8,1.8-4.3,2.8-6.8,2.8s-5-1-6.8-2.8L23.5,306.8c-3.8-3.8-3.8-9.9,0-13.7L293.2,23.5c1.8-1.8,4.3-2.8,6.8-2.8m0-10c-5,0-10.1,1.9-13.9,5.8L16.4,286.1c-7.7,7.7-7.7,20.1,0,27.8l269.7,269.7c3.8,3.8,8.9,5.8,13.9,5.8s10.1-1.9,13.9-5.8l269.7-269.7c7.7-7.7,7.7-20.1,0-27.8L313.9,16.4c-3.8-3.8-8.9-5.8-13.9-5.8" fill="#fff" stroke-width="0"/></g><g clip-path="url(#f)"><path d="m470.8,445.4s-27.7-34.1-28.1-36.1c-.4-2,3.3-23.5,3-39.5-.3-16-11.3-44.4-9.7-50.6s13.7-60.2,13.3-63.3c-.4-3.1-12.6-11.6-25.5-4.2-12.8,7.4-17.1,32.1-19.5,38.1-2.4,6-4.5,12.5-11.6,16.5-11.1,6.4-15.9-2.4-24.2-11.7-4-4.5-29.1-66.6-34.2-75.5-5.1-9-11.1-32.6-28.9-25.4-18.8,7.7,5.3,53.9,7.6,59.6,2.3,5.7,14.2,35.4,15.3,39.6,1.1,4.2-1.5,6.2-4.4,7.5-2.9,1.4-4,4.7-13.9-7.4-9.9-12.1-33.7-38.8-37.2-42.7-3.5-3.9-23.4-26-29.7-27.9-6.4-1.8-22.9,6.3-18.4,19.4,4.5,13.1,29.1,32.9,40.1,46.2,11,13.3,35.7,34,32.2,41.5-3.2,6.9-18.8-4.8-33.3-13.3-14.5-8.5-44.2-29.2-48.3-29.8-4.1-.5-16.6,2.5-16.2,15.5.3,13,27.6,26.5,34.9,31.1,7.3,4.6,45.1,27.4,42.3,35.7-1.8,5.2-22-2.1-33.9-7-11.9-4.8-40.9-15.5-45-6.6-5.6,12.4-2.7,23.2,29.5,34.9,32.3,11.7,38.7,16.4,45.5,21.4,6.8,4.9,27.2,32.7,52.4,42.6,15.8,6.2,34.4,13,45.4,11.2,9.4,3.8,29.1,35.2,29.1,35.2,0,0,22.8-5.9,40.3-19.8,17.4-13.9,31-35.3,31-35.3" fill="#fff" stroke-width="0"/></g><g clip-path="url(#g)"><path d="m410.1,170.2l-27.1,68.7c-1.6,4-3.8,3.4-3.2-.8l10.5-73.1c.4-2.9,2-5.6,3.1-5.3l16.6,4.4c1.1.3,1.2,3.4,0,6.1" fill="#fff" stroke-width="0"/><path d="m250,152l14.7,36.2c.9,2.1-.5,2.9-2,1.2l-24.9-30.1c-1-1.2-1.3-2.8-.6-3.3l10.2-6.1c.7-.4,2,.6,2.6,2.1" fill="#fff" stroke-width="0"/><path d="m162.1,218.4l36.5,34.3c2.1,2,1.2,3.3-1.4,1.8l-43.5-24.7c-1.7-1-3-2.7-2.5-3.3l7.1-9.6c.5-.6,2.4,0,3.9,1.5" fill="#fff" stroke-width="0"/><path d="m136.5,320.4l33,13.8c1.9.8,1.6,1.8-.4,1.5l-35.2-6.1c-1.4-.2-2.7-1-2.5-1.5l2.2-7.6c.2-.5,1.6-.5,3,0" fill="#fff" stroke-width="0"/><path d="m183.7,412.6l37.1-6.4c2.2-.4,2.6,1,.7,2l-33.7,16.9c-1.3.7-3,.6-3.2,0l-3.5-10.5c-.2-.7,1-1.7,2.5-2" fill="#fff" stroke-width="0"/><path d="m334.4,136.9l-9.4,31.9c-.6,1.9-2,1.7-2-.3l-1-33.2c0-1.3.6-2.6,1.3-2.5l10.5,1.4c.7,0,1,1.5.7,2.8" fill="#fff" stroke-width="0"/></g></g></g></svg>