<?xml version="1.0" encoding="UTF-8"?><svg id="b" xmlns="http://www.w3.org/2000/svg" xmlns:xlink="http://www.w3.org/1999/xlink" viewBox="0 0 600 600"><defs><clipPath id="d"><rect width="600" height="600" fill="none" stroke-width="0"/></clipPath><clipPath id="e"><rect width="600" height="600" fill="none" stroke-width="0"/></clipPath></defs><g id="c"><g clip-path="url(#d)"><g clip-path="url(#e)"><path d="m300,584.3c-3.9,0-7.6-1.5-10.4-4.3L20,310.4c-2.8-2.8-4.3-6.5-4.3-10.4s1.5-7.6,4.3-10.4L289.6,20c2.8-2.8,6.5-4.3,10.4-4.3s7.6,1.5,10.4,4.3l269.7,269.7c2.8,2.8,4.3,6.5,4.3,10.4s-1.5,7.6-4.3,10.4l-269.7,269.7c-2.8,2.8-6.5,4.3-10.4,4.3" fill="#9f3027" stroke-width="0"/><path d="m300,20.7c2.6,0,5,1,6.8,2.8l269.7,269.7c3.8,3.8,3.8,9.9,0,13.7l-269.7,269.7c-1.8,1.8-4.3,2.8-6.8,2.8s-5-1-6.8-2.8L23.5,306.8c-3.8-3.8-3.8-9.9,0-13.7L293.2,23.5c1.8-1.8,4.3-2.8,6.8-2.8m0-10c-5,0-10.1,1.9-13.9,5.8L16.4,286.1c-7.7,7.7-7.7,20.1,0,27.8l269.7,269.7c3.8,3.8,8.9,5.8,13.9,5.8s10.1-1.9,13.9-5.8l269.7-269.7c7.7-7.7,7.7-20.1,0-27.8L313.9,16.4c-3.8-3.8-8.9-5.8-13.9-5.8" fill="#fff" stroke-width="0"/><path d="m203.3,394.3c45,43.8,99.5,37.8,99.5,37.8,0,0,0-3,1.8-8.4,11.4-2.4,39-.6,42-.6s9,9.6,10.8,12.6c7.8,0,53.3-13.2,60.5-22.2,3.6-11.4-7.8-78.5-14.4-109.1,32.4-86.9,16.8-112.1,16.8-112.1-33-10.8-52.1-6.6-71.3.6-19.2,7.2-41.4,3-43.2,4.8-.7.7,1.6,16.9,4.6,36.4.1.7.2,1.3.3,2,.5,3.1,1,6.4,1.5,9.6.1.7.2,1.3.3,2,.5,3.1,1,6.3,1.5,9.4,0,.6.2,1.2.3,1.8.5,3.3,1,6.5,1.5,9.6.1.7.2,1.5.3,2.2.5,3.3,1,6.4,1.4,9.4.1.9.3,1.9.4,2.8.5,3.6,1,6.8,1.3,9.6,0,.4.1.8.1,1.2.5,4,.8,6.9.8,8.4s0,.7,0,1c0,.6-.2,1.3-.4,2-.7,2.7-2.1,5.9-4,9.6-.3.6-.7,1.3-1.1,2-8.1,14.8-22.3,34.1-24.5,38.8-38.4-.6-57.5,9-57.5,9l-17.4-3.6s-11.4,7.8-12,33.6" fill="#fff" stroke-width="0"/><line x1="287" y1="370.5" x2="173.9" y2="212.3" fill="none" stroke="#fff" stroke-linecap="round" stroke-miterlimit="10" stroke-width="10"/><polygon points="243.4 239.4 235.5 270.6 194.9 214 202.8 182.8 243.4 239.4" fill="#fff" stroke-width="0"/><polygon points="168 232.2 135.5 230.7 177.4 286.4 209.9 287.8 168 232.2" fill="#fff" stroke-width="0"/></g></g></g></svg>