<?xml version="1.0" encoding="UTF-8"?><svg id="b" xmlns="http://www.w3.org/2000/svg" xmlns:xlink="http://www.w3.org/1999/xlink" viewBox="0 0 600 600"><defs><clipPath id="d"><rect width="600" height="600" fill="none" stroke-width="0"/></clipPath><clipPath id="e"><rect width="600" height="600" fill="none" stroke-width="0"/></clipPath></defs><g id="c"><g clip-path="url(#d)"><g clip-path="url(#e)"><path d="m300,584.3c-3.9,0-7.6-1.5-10.4-4.3L20,310.4c-5.7-5.7-5.7-15,0-20.8L289.6,20c2.8-2.8,6.5-4.3,10.4-4.3s7.6,1.5,10.4,4.3l269.7,269.7c5.7,5.7,5.7,15,0,20.8l-269.7,269.7c-2.8,2.8-6.5,4.3-10.4,4.3" fill="#7a5b42" stroke-width="0"/><path d="m300,20.7c2.6,0,5,1,6.8,2.8l269.7,269.7c1.8,1.8,2.8,4.3,2.8,6.8s-1,5-2.8,6.8l-269.7,269.7c-1.8,1.8-4.3,2.8-6.8,2.8s-5-1-6.8-2.8L23.5,306.8c-1.8-1.8-2.8-4.3-2.8-6.8s1-5,2.8-6.8L293.2,23.5c1.8-1.8,4.3-2.8,6.8-2.8m0-10c-5,0-10.1,1.9-13.9,5.8L16.4,286.1c-7.7,7.7-7.7,20.1,0,27.8l269.7,269.7c3.8,3.8,8.9,5.8,13.9,5.8s10.1-1.9,13.9-5.8l269.7-269.7c7.7-7.7,7.7-20.1,0-27.8L313.9,16.4c-3.8-3.8-8.9-5.8-13.9-5.8" fill="#fff" stroke-width="0"/><path d="m284.1,175.4l3.3,32.1c.6,6,0,10.3-1.8,12.8-1.8,2.6-4.4,4.8-7.6,6.7l-38.6,23.8-6-4.9c6.2-8.6,8.9-17.3,7.9-26.1l-4.6-44.6c-.2-1.6,12.9-9.4,39.2-23.4,26.3-14.1,41.9-21.4,46.7-21.9,4.8-.5,12,4.6,21.6,15.3,9.5,10.7,14.6,19.2,15.3,25.5l7,67.6c.7,6.8-4.7,16.6-16.1,29.3-11.4,12.8-23,23.9-34.7,33.2l-17.5,14.1,1.1,10.9c.8,8.1,2.9,14.3,6.1,18.5,3.2,4.3,6.3,6.5,9.2,6.7l4,.4.9,8.6c-23.7,17.5-36.5,26.3-38.3,26.5-1.8.2-6.2-2.2-13.2-7.3-7-5.1-10.8-10.3-11.3-15.8l-5.5-52.8c-.3-2.9,7.5-10.3,23.5-22.4,16-12.1,27.6-21.8,34.7-29.3,7.1-7.5,10.4-13.5,10-18.2l-4.7-45.3c-1.2-11.5-3.1-19.4-5.8-23.7-2.7-4.3-6.6-6.2-11.7-5.7-5.1.5-9.4,3.6-13.1,9.3m-19.2,271.1l-2.5-23.8c0-.8,5.1-3.8,15.5-8.9,10.4-5.2,16.4-7.8,18.1-8,1.7-.2,4.4,1.8,8.1,5.9,3.7,4.1,5.8,8.5,6.3,13.2l3,28.5c0,.8-4.9,3.7-14.9,8.9-10,5.1-16.2,7.8-18.5,8.1-2.3.2-5.3-1.8-8.7-6-3.5-4.3-5.6-10.2-6.4-17.7" fill="#fff" stroke-width="0"/></g></g></g></svg>