<?xml version="1.0" encoding="UTF-8"?><svg id="b" xmlns="http://www.w3.org/2000/svg" xmlns:xlink="http://www.w3.org/1999/xlink" viewBox="0 0 600 600"><defs><clipPath id="d"><rect width="600" height="600" fill="none" stroke-width="0"/></clipPath><clipPath id="e"><rect width="600" height="600" fill="none" stroke-width="0"/></clipPath></defs><g id="c"><g clip-path="url(#d)"><g clip-path="url(#e)"><path d="m300,584.3c-3.9,0-7.6-1.5-10.4-4.3L20,310.4c-5.7-5.7-5.7-15,0-20.8L289.6,20c2.8-2.8,6.5-4.3,10.4-4.3s7.6,1.5,10.4,4.3l269.7,269.7c5.7,5.7,5.7,15,0,20.8l-269.7,269.7c-2.8,2.8-6.5,4.3-10.4,4.3" fill="#848366" stroke-width="0"/><path d="m300,20.7c2.6,0,5,1,6.8,2.8l269.7,269.7c3.8,3.8,3.8,9.9,0,13.7l-269.7,269.7c-1.8,1.8-4.3,2.8-6.8,2.8s-5-1-6.8-2.8L23.5,306.8c-3.8-3.8-3.8-9.9,0-13.7L293.2,23.5c1.8-1.8,4.3-2.8,6.8-2.8m0-10c-5,0-10.1,1.9-13.9,5.8L16.4,286.1c-7.7,7.7-7.7,20.1,0,27.8l269.7,269.7c3.8,3.8,8.9,5.8,13.9,5.8s10.1-1.9,13.9-5.8l269.7-269.7c7.7-7.7,7.7-20.1,0-27.8L313.9,16.4c-3.8-3.8-8.9-5.8-13.9-5.8" fill="#fff" stroke-width="0"/><path d="m475.4,276.6c-7.5-32.9-25-95.1-169.2-95.1s-161.7,62.2-169.2,95.1c-13.4,58.5,12.7,86.4,27.6,96.9,18.4,12.9,62.2,15.1,62.2,15.1,0,0-5.9,29.2,0,36,13,14.9,141.5,15.9,158.7,0,6.6-6.1,0-36,0-36,0,0,43.8-2.2,62.2-15.1,14.9-10.5,41-38.4,27.6-96.9" fill="#fff" stroke-width="0"/><path d="m299,327.1c-8.9,1.7-22.5,37.4-19.6,44.2,2.9,6.8,9.1-2.8,22.3,0,11.6,2.5,11.6,5.7,17.6,5.8,4.3,0,0-18.3-3.4-36-2.7-13.4-7.9-15.7-16.8-14" fill="#848366" stroke-width="0"/><path d="m232.2,295l29.9-26.2c3-3,3-7.8,0-10.7-3-3-7.9-3-11,0l-26,29.8-26.6-29.8c-2.8-3-7.3-3-10,0-2.8,3-2.8,7.7,0,10.7l29.5,26.2-30,26.2c-3.1,3-3.1,7.8,0,10.7,1.5,1.5,3.6,2.2,5.6,2.2s4.1-.7,5.6-2.2l25.8-29.8,26.5,29.7c1.4,1.4,3.2,2.2,5.1,2.2s3.7-.7,5.1-2.2c2.8-2.9,2.8-7.5,0-10.4l-29.6-26.4Z" fill="#848366" stroke-width="0"/><path d="m232.2,295l29.9-26.2c3-3,3-7.8,0-10.7-3-3-7.9-3-11,0l-26,29.8-26.6-29.8c-2.8-3-7.3-3-10,0-2.8,3-2.8,7.7,0,10.7l29.5,26.2-30,26.2c-3.1,3-3.1,7.8,0,10.7,1.5,1.5,3.6,2.2,5.6,2.2s4.1-.7,5.6-2.2l25.8-29.8,26.5,29.7c1.4,1.4,3.2,2.2,5.1,2.2s3.7-.7,5.1-2.2c2.8-2.9,2.8-7.5,0-10.4l-29.6-26.4Z" fill="none" stroke="#848367" stroke-miterlimit="10" stroke-width="5"/><path d="m382.1,295l29.9-26.2c3-3,3-7.8,0-10.7-3-3-7.9-3-11,0l-26,29.8-26.6-29.8c-2.8-3-7.3-3-10,0-2.8,3-2.8,7.7,0,10.7l29.5,26.2-30,26.2c-3.1,3-3.1,7.8,0,10.7,1.5,1.5,3.6,2.2,5.6,2.2s4.1-.7,5.6-2.2l25.8-29.8,26.5,29.7c1.4,1.4,3.2,2.2,5.1,2.2s3.7-.7,5.1-2.2c2.8-2.9,2.8-7.5,0-10.4l-29.6-26.4Z" fill="#848366" stroke-width="0"/><path d="m382.1,295l29.9-26.2c3-3,3-7.8,0-10.7-3-3-7.9-3-11,0l-26,29.8-26.6-29.8c-2.8-3-7.3-3-10,0-2.8,3-2.8,7.7,0,10.7l29.5,26.2-30,26.2c-3.1,3-3.1,7.8,0,10.7,1.5,1.5,3.6,2.2,5.6,2.2s4.1-.7,5.6-2.2l25.8-29.8,26.5,29.7c1.4,1.4,3.2,2.2,5.1,2.2s3.7-.7,5.1-2.2c2.8-2.9,2.8-7.5,0-10.4l-29.6-26.4Z" fill="none" stroke="#848367" stroke-miterlimit="10" stroke-width="5"/></g></g></g></svg>