<?xml version="1.0" encoding="UTF-8"?><svg id="b" xmlns="http://www.w3.org/2000/svg" xmlns:xlink="http://www.w3.org/1999/xlink" viewBox="0 0 600 600"><defs><clipPath id="d"><rect width="600" height="600" fill="none" stroke-width="0"/></clipPath><clipPath id="e"><rect width="600" height="600" fill="none" stroke-width="0"/></clipPath></defs><g id="c"><g clip-path="url(#d)"><g clip-path="url(#e)"><path d="m300,584.3c-3.9,0-7.6-1.5-10.4-4.3L20,310.4c-5.7-5.7-5.7-15,0-20.8L289.6,20c2.8-2.8,6.5-4.3,10.4-4.3s7.6,1.5,10.4,4.3l269.7,269.7c5.7,5.7,5.7,15,0,20.8l-269.7,269.7c-2.8,2.8-6.5,4.3-10.4,4.3" fill="#5198d3" stroke-width="0"/><path d="m300,20.7c2.6,0,5,1,6.8,2.8l269.7,269.7c1.8,1.8,2.8,4.3,2.8,6.8s-1,5-2.8,6.8l-269.7,269.7c-1.8,1.8-4.3,2.8-6.8,2.8s-5-1-6.8-2.8L23.5,306.8c-3.8-3.8-3.8-9.9,0-13.7L293.2,23.5c1.8-1.8,4.3-2.8,6.8-2.8m0-10c-5,0-10.1,1.9-13.9,5.8L16.4,286.1c-7.7,7.7-7.7,20.1,0,27.8l269.7,269.7c3.8,3.8,8.9,5.8,13.9,5.8s10.1-1.9,13.9-5.8l269.7-269.7c7.7-7.7,7.7-20.1,0-27.8L313.9,16.4c-3.8-3.8-8.9-5.8-13.9-5.8" fill="#fff" stroke-width="0"/><path d="m425.5,406s-24.8,6.5-64.5-12.5c-26.2,11.9-50.1,16.5-77,11.9-18.6-3.2-36.4-8.9-54.6-13.9-27.5-7.6-52.7-13.1-55.8-17.8-5.1-7.8-17.3-49.3,3.7-99.9,12.3-29.5,23.5-52.4,25.2-64.4.6-4.3,1.4-36.5,48.7-53.2,47.4-16.7,78.4-10.9,86.2,4.1,7.8,15,6.8,51.6-2,50.8-13.9-1.3-27.6,5.4-41,4-13.4-1.4-28.9-10.8-33-8.2-4.1,2.5-7.4,18-9.5,28.9-3.1,16.2,10.9,40.8,11.9,60,6.5-5.6,25.7-15.3,49.1-16.2,21.2-.8,29.3,4.4,44.6,19.8,5.1-4.2,29.7-22.1,71.3-20.4.2,27.1,6,47.6,6,77.5,0,46.2-9.4,49.5-9.4,49.5" fill="#fff" stroke-width="0"/></g></g></g></svg>