<?xml version="1.0" encoding="UTF-8"?><svg id="b" xmlns="http://www.w3.org/2000/svg" xmlns:xlink="http://www.w3.org/1999/xlink" viewBox="0 0 600 600"><defs><clipPath id="d"><rect width="600" height="600" fill="none" stroke-width="0"/></clipPath><clipPath id="e"><rect width="600" height="600" fill="none" stroke-width="0"/></clipPath></defs><g id="c"><g clip-path="url(#d)"><g clip-path="url(#e)"><path d="m300,584.3c-3.9,0-7.6-1.5-10.4-4.3L20,310.4c-5.7-5.7-5.7-15,0-20.8L289.6,20c2.8-2.8,6.5-4.3,10.4-4.3s7.6,1.5,10.4,4.3l269.7,269.7c5.7,5.7,5.7,15,0,20.8l-269.7,269.7c-2.8,2.8-6.5,4.3-10.4,4.3" fill="#324165" stroke-width="0"/><path d="m300,20.7c2.6,0,5,1,6.8,2.8l269.7,269.7c1.8,1.8,2.8,4.3,2.8,6.8s-1,5-2.8,6.8l-269.7,269.7c-1.8,1.8-4.3,2.8-6.8,2.8s-5-1-6.8-2.8L23.5,306.8c-3.8-3.8-3.8-9.9,0-13.7L293.2,23.5c1.8-1.8,4.3-2.8,6.8-2.8m0-10c-5,0-10.1,1.9-13.9,5.8L16.4,286.1c-7.7,7.7-7.7,20.1,0,27.8l269.7,269.7c3.8,3.8,8.9,5.8,13.9,5.8s10.1-1.9,13.9-5.8l269.7-269.7c7.7-7.7,7.7-20.1,0-27.8L313.9,16.4c-3.8-3.8-8.9-5.8-13.9-5.8" fill="#fff" stroke-width="0"/><path d="m424.2,177.6l-81.7,22.5-55.5-72.3-39.3,93-90.7-1.1,52.8,66.2-81.2,66.8,104.3,16.6,2.6,87.4,62.2-51.5,50.3,45.3.7-76.6,82,11.8-33.1-73.1,74.2-37-79.5-34.3,31.9-63.5Zm-22.3,101l-39.9,27,21.2,43.5-47,.4-10.2,48.4-33.3-29-31.3,25.7-5.4-52.2-52-9.9,38.9-39.5-23.4-45.9,45-3.3,32.9-57,34.6,49.4,39.9-15.9-16,36.9,46,21.3Zm-44.6,8.9l-21.8,14.8,11.6,23.7-25.7.2-5.5,26.4-18.2-15.8-17.1,14.1-3-28.5-28.4-5.4,21.3-21.6-12.8-25.1,24.6-1.8,18-31.2,18.9,27,21.8-8.7-8.7,20.1,25.1,11.7Z" fill="#fff" stroke-width="0"/></g></g></g></svg>