<?xml version="1.0" encoding="UTF-8"?><svg id="b" xmlns="http://www.w3.org/2000/svg" xmlns:xlink="http://www.w3.org/1999/xlink" viewBox="0 0 600 600"><defs><clipPath id="d"><rect width="600" height="600" fill="none" stroke-width="0"/></clipPath><clipPath id="e"><rect width="600" height="600" fill="none" stroke-width="0"/></clipPath></defs><g id="c"><g clip-path="url(#d)"><g clip-path="url(#e)"><path d="m300,584.3c-3.9,0-7.6-1.5-10.4-4.3L20,310.4c-2.8-2.8-4.3-6.5-4.3-10.4s1.5-7.6,4.3-10.4L289.6,20c2.8-2.8,6.5-4.3,10.4-4.3s7.6,1.5,10.4,4.3l269.7,269.7c2.8,2.8,4.3,6.5,4.3,10.4s-1.5,7.6-4.3,10.4l-269.7,269.7c-2.8,2.8-6.5,4.3-10.4,4.3" fill="#e15811" stroke-width="0"/><path d="m300,20.7c2.6,0,5,1,6.8,2.8l269.7,269.7c3.8,3.8,3.8,9.9,0,13.7l-269.7,269.7c-1.8,1.8-4.3,2.8-6.8,2.8s-5-1-6.8-2.8L23.5,306.8c-3.8-3.8-3.8-9.9,0-13.7L293.2,23.5c1.8-1.8,4.3-2.8,6.8-2.8m0-10c-5,0-10.1,1.9-13.9,5.8L16.4,286.1c-7.7,7.7-7.7,20.1,0,27.8l269.7,269.7c3.8,3.8,8.9,5.8,13.9,5.8s10.1-1.9,13.9-5.8l269.7-269.7c7.7-7.7,7.7-20.1,0-27.8L313.9,16.4c-3.8-3.8-8.9-5.8-13.9-5.8" fill="#fff" stroke-width="0"/><path d="m341.8,315.2c-20.5-28.3-32.1-57.7-36.5-69.9-.7-1.9-3.3-1.9-4,0-4.4,12.3-16,41.6-36.5,69.9-26.8,37-40.3,55-40.3,86.1s35.3,78.8,78.8,78.8,78.8-35.3,78.8-78.8-13.6-49.1-40.3-86.1" fill="#fff" stroke-width="0"/><path d="m397.8,276.1c-4.7,13.9-7.7,27-5.9,35.1,7.2,32.6-9.6,38.9-9.7,39.3-6.8-12.1-15.9-24.8-27.3-40.6l-2-2.7c-19.6-27.1-30.8-55.6-34.7-66.5-2.2-6.2-8.2-10.4-14.8-10.4s-12.6,4.2-14.8,10.4c-3.9,11-15.1,39.4-34.7,66.5l-2,2.7c-16,22.2-27.7,38.3-34.3,55.3-8.3-4.8-17.9-14.9-19.3-31.6-1.2-14.8,2.9-34.7,17-58.4,15.4-25.8,12.2-54.3-11.5-72.9,16.3-8.6,31.3,3,36.2,11.3,8.8,14.9,20.5,14,26.5,6.3,10.9-13.8-7.3-27.5-9.5-49-1.4-14.2,3.6-38,27.7-51-8.2,26.2,4.2,44.6,21.4,52.3,13.1,5.9,34.7-8.1,29-18.1,26.2,15.2,20.6,38.7,17.9,48.1-3.1,11-6.8,27.3,2.3,34,9,6.7,27,2.7,29.4-18.3,0,0,27.4,16.5,13.1,58.2" fill="#fff" stroke-width="0"/></g></g></g></svg>